<?xml version="1.0" standalone="no"?>
<!DOCTYPE svg PUBLIC "-//W3C//DTD SVG 20010904//EN"
 "http://www.w3.org/TR/2001/REC-SVG-20010904/DTD/svg10.dtd">
<svg version="1.0" xmlns="http://www.w3.org/2000/svg"
 width="70.000000pt" height="70.000000pt" viewBox="0 0 70.000000 70.000000"
 preserveAspectRatio="xMidYMid meet">
<metadata>
Created by potrace 1.11, written by Peter Selinger 2001-2013
</metadata>
<g transform="translate(0.000000,70.000000) scale(0.100000,-0.100000)"
fill="#000000" stroke="none">
<path d="M317 692 c-11 -2 -16 -10 -13 -20 3 -9 2 -23 -2 -30 -6 -9 -12 -6
-20 12 -10 22 -14 24 -40 14 -26 -10 -29 -14 -22 -40 10 -32 8 -34 -15 -12
-18 19 -39 13 -54 -15 -8 -15 -7 -23 4 -34 19 -19 8 -29 -17 -16 -23 12 -22
13 -36 -28 -10 -31 -9 -33 14 -39 18 -5 22 -9 13 -14 -7 -5 -18 -6 -26 -3 -9
4 -13 -5 -13 -29 l0 -34 49 0 c48 0 49 1 49 32 0 53 47 120 96 138 14 5 17 2
12 -9 -4 -10 1 -15 14 -15 11 0 20 -7 20 -15 0 -26 -51 -115 -66 -115 -8 0
-14 -7 -14 -15 0 -9 -6 -15 -12 -14 -7 1 -41 1 -75 0 -49 -1 -63 -4 -63 -16 0
-8 -5 -15 -12 -15 -6 0 -8 -3 -5 -6 3 -4 0 -16 -8 -27 -17 -24 -3 -59 23 -55
11 2 18 -6 22 -26 4 -24 10 -30 33 -31 15 -1 30 -5 34 -8 6 -7 -18 -11 -49 -8
-15 2 -18 -6 -18 -53 l0 -55 80 2 c90 2 96 -4 50 -48 -16 -16 -30 -31 -30 -34
0 -3 92 -6 205 -6 113 0 205 3 205 8 0 4 -26 33 -57 64 -57 56 -58 58 -59 114
0 51 4 63 33 100 33 42 51 85 40 96 -4 3 -40 6 -82 6 -62 0 -75 3 -70 14 3 9
-2 17 -13 20 -18 4 -77 133 -70 153 6 15 83 -19 106 -47 24 -31 46 -98 37
-113 -7 -11 0 -13 63 -14 41 -2 42 -1 42 31 0 28 -3 31 -25 27 -30 -5 -34 12
-5 21 23 7 24 15 8 50 -12 27 -23 32 -33 15 -4 -6 -11 -8 -16 -4 -6 4 -3 14 7
25 16 18 16 20 -6 44 l-24 25 -24 -22 -24 -23 6 32 c6 26 3 34 -13 42 -30 16
-39 14 -55 -16 -8 -16 -16 -23 -17 -18 -1 6 -2 15 -4 20 -1 6 -3 17 -3 25 -2
15 -19 19 -55 12z m57 -278 c6 -18 2 -21 -33 -22 -22 -1 -43 3 -46 8 -3 6 -2
10 3 10 4 0 16 17 26 37 l18 38 13 -25 c7 -14 15 -34 19 -46z"/>
</g>
</svg>
